<?xml version="1.0" encoding="utf-8"?>
<!-- Generator: Adobe Illustrator 26.0.3, SVG Export Plug-In . SVG Version: 6.00 Build 0)  -->
<svg version="1.1" id="Layer_1" xmlns="http://www.w3.org/2000/svg" xmlns:xlink="http://www.w3.org/1999/xlink" x="0px" y="0px"
	 viewBox="0 0 852.7 200.9" style="enable-background:new 0 0 852.7 200.9;" xml:space="preserve">
<style type="text/css">
	.st0{fill:url(#SVGID_1_);}
	.st1{fill:#009FCD;}
	.st2{fill:url(#SVGID_00000090266086561872416390000001405274242725849246_);}
</style>
<g>
	
		<linearGradient id="SVGID_1_" gradientUnits="userSpaceOnUse" x1="52.7" y1="644.85" x2="234.3" y2="644.85" gradientTransform="matrix(1 0 0 1 0 -544.4)">
		<stop  offset="0.1938" style="stop-color:#009FCD"/>
		<stop  offset="0.3072" style="stop-color:#00A0CB"/>
		<stop  offset="1" style="stop-color:#F5C226"/>
	</linearGradient>
	<polygon class="st0" points="143.5,78 52.7,78 52.7,122.9 143.5,122.9 234.3,122.9 234.3,78 	"/>
	<polygon class="st1" points="364.5,0 276.1,0 231.1,0 231.1,45 231.1,200.9 276.1,200.9 276.1,45 364.5,45 364.5,200.9 
		409.5,200.9 409.5,45 409.5,0 	"/>
	<polygon class="st1" points="705.7,0 615.8,0 615.8,45 705.7,45 705.7,200.9 750.7,200.9 750.7,45 750.7,0 	"/>
	<polygon class="st1" points="601.8,0 468.4,0 423.4,0 423.4,45 423.4,200.9 468.4,200.9 468.4,45 601.8,45 	"/>
	
		<linearGradient id="SVGID_00000113352900141336147760000006181327606334162062_" gradientUnits="userSpaceOnUse" x1="456" y1="644.85" x2="599.7" y2="644.85" gradientTransform="matrix(1 0 0 1 0 -544.4)">
		<stop  offset="0.1938" style="stop-color:#009FCD"/>
		<stop  offset="0.3072" style="stop-color:#00A0CB"/>
		<stop  offset="1" style="stop-color:#F5C226"/>
	</linearGradient>
	<polygon style="fill:url(#SVGID_00000113352900141336147760000006181327606334162062_);" points="527.8,78 456,78 456,122.9 
		527.8,122.9 599.7,122.9 599.7,78 	"/>
	<polygon class="st1" points="807.7,0 762.8,0 762.8,45 807.7,45 852.7,45 852.7,0 	"/>
	<polygon class="st1" points="159,0 95.4,0 45,50.4 45,0 0,0 0,200.9 45,200.9 45,150.5 95.4,200.9 159,200.9 58.5,100.4 	"/>
</g>
</svg>
