<?xml version="1.0" encoding="utf-8"?>
<!-- Generator: Adobe Illustrator 26.0.3, SVG Export Plug-In . SVG Version: 6.00 Build 0)  -->
<svg version="1.1" id="Layer_1" xmlns="http://www.w3.org/2000/svg" xmlns:xlink="http://www.w3.org/1999/xlink" x="0px" y="0px"
	 viewBox="0 0 852.7 200.9" style="enable-background:new 0 0 852.7 200.9;" xml:space="preserve">
<style type="text/css">
	.st0{fill:#848484;}
</style>
<g>
	<polygon class="st0" points="143.5,78 52.7,78 52.7,122.9 143.5,122.9 234.3,122.9 234.3,78 	"/>
	<polygon class="st0" points="364.5,0 276.1,0 231.1,0 231.1,45 231.1,200.9 276.1,200.9 276.1,45 364.5,45 364.5,200.9 
		409.5,200.9 409.5,45 409.5,0 	"/>
	<polygon class="st0" points="705.7,0 615.8,0 615.8,45 705.7,45 705.7,200.9 750.7,200.9 750.7,45 750.7,0 	"/>
	<polygon class="st0" points="601.8,0 468.4,0 423.4,0 423.4,45 423.4,200.9 468.4,200.9 468.4,45 601.8,45 	"/>
	<polygon class="st0" points="527.8,78 456,78 456,122.9 527.8,122.9 599.7,122.9 599.7,78 	"/>
	<polygon class="st0" points="807.7,0 762.8,0 762.8,45 807.7,45 852.7,45 852.7,0 	"/>
	<polygon class="st0" points="159,0 95.4,0 45,50.4 45,0 0,0 0,200.9 45,200.9 45,150.5 95.4,200.9 159,200.9 58.5,100.4 	"/>
</g>
</svg>
